C:\Users\r0593348\3dpredictsim\Results\batch_windlass\Pog_s1_tmt_bCst_d05_k800_WL40_ig24_act_TTC_GRF.mot
nRows=12
nColumns=19

name C:\Users\r0593348\3dpredictsim\Results\batch_windlass\Pog_s1_tmt_bCst_d05_k800_WL40_ig24_act_TTC_GRF.mot
datacolumns 19
datarows 12
range 0.0000000000 0.1328150030
endheader
time 	ground_force_vx	ground_force_vy	ground_force_vz	ground_force_px	ground_force_py	ground_force_pz	1_ground_force_vx	1_ground_force_vy	1_ground_force_vz	1_ground_force_px	1_ground_force_py	1_ground_force_pz	ground_torque_x	ground_torque_y	ground_torque_z	1_ground_torque_x	1_ground_torque_y	1_ground_torque_z
        0.0000000000	      -52.1440172752	       36.2717065023	        8.6322495198	        0.1734214962	        0.0000000000	        0.0553873946	       83.4643950122	      390.4747695880	       -2.0508919033	       -0.3508852972	        0.0000000000	       -0.0351536822	        0.0000000000	        0.0000000000	        0.0000000000	        0.0000000000	        0.0000000000	        0.0000000000	
        0.0120740912	     -117.0392585572	       99.4857903893	       24.4858243096	        0.1851918788	        0.0000000000	        0.0534250507	       53.3475570595	      294.0420750411	      -10.1041332896	       -0.3425076162	        0.0000000000	       -0.0312579157	        0.0000000000	        0.0000000000	        0.0000000000	        0.0000000000	        0.0000000000	        0.0000000000	
        0.0241481824	     -109.8148261766	      241.3030596485	       33.3797174466	        0.1940551143	        0.0000000000	        0.0524207092	       34.7958655273	      215.6865740840	      -15.1426149732	       -0.3330476087	        0.0000000000	       -0.0263155245	        0.0000000000	        0.0000000000	        0.0000000000	        0.0000000000	        0.0000000000	        0.0000000000	
        0.0362222735	      -73.0424011101	      499.8073610250	       -2.5999926106	        0.2030720284	        0.0000000000	        0.0530190600	       23.1329074024	      168.1148552458	      -13.9588108093	       -0.3304724283	        0.0000000000	       -0.0246801678	        0.0000000000	        0.0000000000	        0.0000000000	        0.0000000000	        0.0000000000	        0.0000000000	
        0.0482963647	     -109.0770739187	      772.8765069779	      -19.3596401145	        0.2141930338	        0.0000000000	        0.0554382279	       16.6708045703	      112.7639238895	      -11.1462216295	       -0.3301181630	        0.0000000000	       -0.0246488045	        0.0000000000	        0.0000000000	        0.0000000000	        0.0000000000	        0.0000000000	        0.0000000000	
        0.0603704559	     -138.8140113959	      897.8364902806	      -25.6074493989	        0.2207333696	        0.0000000000	        0.0567481681	       -7.2279068899	       52.1031176681	       -7.3219652488	       -0.3321597040	        0.0000000000	       -0.0247398552	        0.0000000000	        0.0000000000	        0.0000000000	        0.0000000000	        0.0000000000	        0.0000000000	
        0.0724445471	     -141.5275541320	      916.3522385265	      -26.8633683832	        0.2263621229	        0.0000000000	        0.0573826100	       -5.2700677826	        5.2420027975	        0.3831138935	        0.0000000000	        0.0000000000	        0.0000000000	        0.0000000000	        0.0000000000	        0.0000000000	        0.0000000000	        0.0000000000	        0.0000000000	
        0.0845186382	     -136.5146535356	      884.8368773977	      -23.8358704092	        0.2321921988	        0.0000000000	        0.0574236554	       -2.7624828536	        2.2749449245	        0.3243082449	        0.0000000000	        0.0000000000	        0.0000000000	        0.0000000000	        0.0000000000	        0.0000000000	        0.0000000000	        0.0000000000	        0.0000000000	
        0.0965927294	     -126.9895919770	      845.2852928973	      -20.3274406827	        0.2382842899	        0.0000000000	        0.0570468692	       -0.7488028894	        0.5495760700	        0.0849352267	        0.0000000000	        0.0000000000	        0.0000000000	        0.0000000000	        0.0000000000	        0.0000000000	        0.0000000000	        0.0000000000	        0.0000000000	
        0.1086668206	     -112.6588967335	      796.0899604226	      -17.9104841751	        0.2442407817	        0.0000000000	        0.0565535548	       -0.0185359304	        0.0123786531	        0.0018059888	        0.0000000000	        0.0000000000	        0.0000000000	        0.0000000000	        0.0000000000	        0.0000000000	        0.0000000000	        0.0000000000	        0.0000000000	
        0.1207409118	      -96.9919982644	      749.3510118543	      -18.1756563804	        0.2486957288	        0.0000000000	        0.0561443275	       -0.1794811403	        0.1131663626	        0.0142417067	        0.0000000000	        0.0000000000	        0.0000000000	        0.0000000000	        0.0000000000	        0.0000000000	        0.0000000000	        0.0000000000	        0.0000000000	
        0.1328150030	      -83.6631239571	      711.3671925274	      -19.2453966218	        0.2525989754	        0.0000000000	        0.0558821490	       -0.3497557893	        0.2091149597	        0.0240644891	        0.0000000000	        0.0000000000	        0.0000000000	        0.0000000000	        0.0000000000	        0.0000000000	        0.0000000000	        0.0000000000	        0.0000000000	
